<?xml version="1.0" encoding="UTF-8"?>
<!DOCTYPE svg PUBLIC "-//W3C//DTD SVG 1.1//EN" "http://www.w3.org/Graphics/SVG/1.1/DTD/svg11.dtd">
<svg version="1.1" xmlns="http://www.w3.org/2000/svg" xmlns:xlink="http://www.w3.org/1999/xlink" x="0" y="0" width="226" height="263" viewBox="0, 0, 226, 263">
  <defs>
    <linearGradient id="Gradient_1" gradientUnits="userSpaceOnUse" x1="112.707" y1="199.919" x2="112.707" y2="260.868">
      <stop offset="0" stop-color="#F6D1BF"/>
      <stop offset="1" stop-color="#FFFFFE"/>
    </linearGradient>
    <clipPath id="Clip_1">
      <path d="M94.959,1.788 C102.775,2.434 105.29,10.871 105.447,17.584 C105.447,20.306 109.803,105.226 111.438,109.037 C113.07,112.845 119.059,110.125 119.059,110.125 C119.059,110.125 133.211,43.713 135.387,35.548 C137.566,27.384 141.375,17.584 148.996,18.127 C156.617,18.673 156.617,25.75 157.16,35.548 C157.705,45.349 148.453,118.834 147.906,121.556 C147.363,124.277 150.086,150.115 150.629,153.381 C151.174,156.645 154.439,160.453 159.883,159.367 C165.326,158.278 171.859,150.658 174.035,147.393 C176.215,144.127 180.568,137.051 197.443,128.882 C214.316,120.72 224.117,134.871 224.117,137.592 C224.117,140.315 206.697,147.936 196.355,160.453 C186.012,172.973 173.492,204.547 170.77,210.535 C168.047,216.524 147.363,233.399 142.465,239.387 C137.566,245.375 135.387,261.16 135.387,261.16 L54.279,261.703 C55.367,252.996 49.41,238.723 46.113,232.856 C37.232,217.039 33.594,192.028 32.506,184.953 C31.418,177.875 27.062,145.508 25.428,140.065 C23.795,134.619 9.643,97.058 5.287,85.086 C0.934,73.111 -0.699,62.767 4.742,60.043 C10.188,57.322 14.541,63.31 17.264,68.755 C19.984,74.197 27.062,88.349 29.238,93.248 C31.418,98.15 44.48,118.291 44.48,118.291 C44.48,118.291 50.469,116.656 50.469,113.935 C50.469,111.215 39.582,44.259 38.492,37.724 C37.404,31.193 39.582,21.939 46.658,20.306 C53.734,18.673 56.457,27.927 57.547,33.373 C58.635,38.814 72.787,105.226 74.42,109.037 C76.053,112.845 82.041,110.67 82.586,106.859 C83.129,103.047 84.219,27.384 84.762,20.853 C85.309,14.318 83.674,2.343 94.016,1.798 L94.959,1.788 z"/>
    </clipPath>
  </defs>
  <g id="Layer_1">
    <g clip-path="url(#Clip_1)">
      <path d="M94.959,1.788 C102.775,2.434 105.29,10.871 105.447,17.584 C105.447,20.306 109.803,105.226 111.438,109.037 C113.07,112.845 119.059,110.125 119.059,110.125 C119.059,110.125 133.211,43.713 135.387,35.548 C137.566,27.384 141.375,17.584 148.996,18.127 C156.617,18.673 156.617,25.75 157.16,35.548 C157.705,45.349 148.453,118.834 147.906,121.556 C147.363,124.277 150.086,150.115 150.629,153.381 C151.174,156.645 154.439,160.453 159.883,159.367 C165.326,158.278 171.859,150.658 174.035,147.393 C176.215,144.127 180.568,137.051 197.443,128.882 C214.316,120.72 224.117,134.871 224.117,137.592 C224.117,140.315 206.697,147.936 196.355,160.453 C186.012,172.973 173.492,204.547 170.77,210.535 C168.047,216.524 147.363,233.399 142.465,239.387 C137.566,245.375 135.387,261.16 135.387,261.16 L54.279,261.703 C55.367,252.996 49.41,238.723 46.113,232.856 C37.232,217.039 33.594,192.028 32.506,184.953 C31.418,177.875 27.062,145.508 25.428,140.065 C23.795,134.619 9.643,97.058 5.287,85.086 C0.934,73.111 -0.699,62.767 4.742,60.043 C10.188,57.322 14.541,63.31 17.264,68.755 C19.984,74.197 27.062,88.349 29.238,93.248 C31.418,98.15 44.48,118.291 44.48,118.291 C44.48,118.291 50.469,116.656 50.469,113.935 C50.469,111.215 39.582,44.259 38.492,37.724 C37.404,31.193 39.582,21.939 46.658,20.306 C53.734,18.673 56.457,27.927 57.547,33.373 C58.635,38.814 72.787,105.226 74.42,109.037 C76.053,112.845 82.041,110.67 82.586,106.859 C83.129,103.047 84.219,27.384 84.762,20.853 C85.309,14.318 83.674,2.343 94.016,1.798 L94.959,1.788 z" fill="url(#Gradient_1)"/>
    </g>
    <path d="M135.387,261.16 C135.387,261.16 137.566,245.375 142.465,239.387 C147.363,233.399 168.047,216.524 170.77,210.535 C173.492,204.547 186.012,172.973 196.355,160.453 C206.697,147.936 224.117,140.315 224.117,137.592 C224.117,134.871 214.316,120.72 197.443,128.882 C180.568,137.051 176.215,144.127 174.035,147.393 C171.859,150.658 165.326,158.278 159.883,159.367 C154.439,160.453 151.174,156.645 150.629,153.381 C150.086,150.115 147.363,124.277 147.906,121.556 C148.453,118.834 157.705,45.349 157.16,35.548 C156.617,25.75 156.617,18.673 148.996,18.127 C141.375,17.584 137.566,27.384 135.387,35.548 C133.211,43.713 119.059,110.125 119.059,110.125 C119.059,110.125 113.07,112.845 111.438,109.037 C109.803,105.226 105.447,20.306 105.447,17.584 C105.447,14.863 104.359,1.255 94.016,1.798 C83.674,2.343 85.309,14.318 84.762,20.853 C84.219,27.384 83.129,103.047 82.586,106.859 C82.041,110.67 76.053,112.845 74.42,109.037 C72.787,105.226 58.635,38.814 57.547,33.373 C56.457,27.927 53.734,18.673 46.658,20.306 C39.582,21.939 37.404,31.193 38.492,37.724 C39.582,44.259 50.469,111.215 50.469,113.935 C50.469,116.656 44.48,118.291 44.48,118.291 C44.48,118.291 31.418,98.15 29.238,93.248 C27.062,88.349 19.984,74.197 17.264,68.755 C14.541,63.31 10.188,57.322 4.742,60.043 C-0.699,62.767 0.934,73.111 5.287,85.086 C9.643,97.058 23.795,134.619 25.428,140.065 C27.062,145.508 31.418,177.875 32.506,184.953 C33.594,192.028 37.232,217.039 46.113,232.856 C49.41,238.723 55.367,252.996 54.279,261.703" fill-opacity="0" stroke="#1A1919" stroke-width="2.593" stroke-linecap="round" stroke-linejoin="round"/>
    <path d="M5.287,85.086 C5.287,85.086 10.867,80.027 16.918,79.595 M43.715,48.908 C43.715,48.908 51.93,45.88 55.818,46.314 M87.805,31.615 C87.805,31.615 96.881,29.025 102.066,31.185 M136.215,45.88 C136.215,45.88 146.586,43.287 152.641,48.043 M131.027,74.841 C131.027,74.841 140.537,73.545 149.613,77.433 M132.758,78.298 C132.758,78.298 140.969,80.892 147.453,81.326 M87.805,66.629 C87.805,66.629 95.152,64.033 104.23,66.197 M88.236,69.654 C88.236,69.654 98.609,70.517 103.797,69.222 M48.471,78.298 C48.471,78.298 55.818,73.545 62.303,74.841 M49.768,80.892 C49.768,80.892 58.41,80.029 61.871,79.166 M15.621,101.638 C15.621,101.638 19.078,98.181 25.129,97.318 M16.918,104.666 C16.918,104.666 22.535,103.369 26.428,101.207 M29.453,129.302 C29.453,129.302 37.232,123.25 41.988,121.09 M54.953,114.607 C54.953,114.607 64.031,110.716 70.945,110.716 M85.643,108.556 C85.643,108.556 102.5,107.257 108.119,108.988 M123.68,110.285 C123.68,110.285 137.078,112.447 141.402,115.041 M32.477,159.774 C32.477,159.774 79.592,150.699 93.855,144.215 C108.119,137.733 115.898,134.272 118.926,132.979 M80.023,174.039 C80.023,174.039 108.982,146.807 146.156,141.19 M141.834,142.918 C141.834,142.918 74.189,171.445 108.119,232.391 M29.885,149.617 C29.885,149.617 34.207,147.026 40.691,147.026 M165.605,157.832 C165.605,157.832 167.77,166.477 171.227,169.5 M159.988,158.262 C159.988,158.262 164.311,174.254 170.361,179.871 M180.734,140.108 C180.734,140.108 180.734,147.889 187.219,151.778" fill-opacity="0" stroke="#1A1919" stroke-width="1.297" stroke-linecap="round" stroke-linejoin="round"/>
  </g>
</svg>
